<?xml version="1.0" standalone="no"?><!DOCTYPE svg PUBLIC "-//W3C//DTD SVG 1.1//EN" "http://www.w3.org/Graphics/SVG/1.1/DTD/svg11.dtd"><svg class="icon" width="200px" height="134.21px" viewBox="0 0 1526 1024" version="1.1" xmlns="http://www.w3.org/2000/svg"><path fill="#333333" d="M243.21200143 799.13000696l355.70945161-355.70945242 278.46473401 278.40283868 23.02486797-2.78526571-301.48960198-301.42770749-385.10948529 385.10948528 29.40003369-3.58989834z"  /><path fill="#333333" d="M171.16644664 823.45466523l427.7550064-427.75500642 334.85090268 334.85090269-62.01859626 7.55116616-272.83230642-272.83230642L250.39179896 813.79907532l-79.22535232 9.6555899z"  /><path fill="#333333" d="M1007.79854361 349.46423852l-247.14596173 247.08406724 13.30738358 12.50275093 233.83857815-233.77668364 278.40283951 278.40283867 23.02486798-2.78526653-301.42770749-301.42770667z"  /><path fill="#333333" d="M1280.63085004 669.95554617L1007.79854361 397.12323974l-233.529104 233.52910401-35.83709308-33.73266934 269.36619708-269.36619708 334.85090268 334.85090185-62.01859626 7.551167zM454.64465991 406.4693555a59.97606701 59.97606701 0 1 1 59.91417253-59.91417251A59.97606701 59.97606701 0 0 1 454.64465991 406.4693555z m0-103.42622159a43.6977334 43.6977334 0 1 0 43.32636393 43.6977334 43.7596279 43.7596279 0 0 0-43.32636393-43.6977334z"  /><path fill="#333333" d="M454.64465991 421.94305649a75.44976883 75.44976883 0 1 1 75.14029468-75.3878735A75.51166333 75.51166333 0 0 1 454.64465991 421.94305649z m0-103.42622077a28.22403158 28.22403158 0 1 0 28.28592609 28.22403159A28.28592609 28.28592609 0 0 0 454.64465991 318.51683572z"  /><path fill="#333333" d="M1351.74798239 124.9098808v774.2421329H171.29023646V124.9098808h1180.45774593m23.02486799-19.31117899H148.26536847v812.80259638h1226.50748191V105.59870181z"  /><path fill="#333333" d="M1390.24655219 933.875H132.79166666V90.125h1257.45488553zM186.76393744 883.67831189h1149.51034396V140.38358262H186.76393744z"  /></svg>